<svg width="58" height="58" viewBox="0 0 58 58" fill="none" xmlns="http://www.w3.org/2000/svg">
<g clip-path="url(#clip0)">
<path d="M40.4578 30.9473V27.2642C40.4578 25.1934 39.2142 24.6261 35.1845 23.1758C36.8864 19.2942 37.3307 18.0115 35.8776 16.5751L33.22 13.9817C32.703 13.4731 31.9596 13.1713 31.2247 13.1713C30.73 13.1713 30.2186 13.1713 26.555 14.8033C24.9509 10.8463 24.3473 9.62787 22.3436 9.62787H18.585C16.6065 9.62787 16.0112 10.7289 14.4603 14.8285C10.7352 13.2831 10.2126 13.2831 9.74589 13.2831C9.01093 13.2831 8.26758 13.5849 7.75618 14.0879L5.093 16.6924C3.6063 18.154 4.1177 19.5233 5.86708 23.2456C1.76191 24.8441 0.627335 25.3974 0.627335 27.4151V31.101C0.627335 33.1718 1.8709 33.7419 5.89782 35.1922C4.19875 39.0683 3.76 40.3509 5.20478 41.7845L7.85399 44.3751C8.36819 44.8893 9.11992 45.1967 9.85767 45.1967C10.3495 45.1967 10.8609 45.1967 14.5273 43.5619C16.1342 47.5189 16.735 48.7401 18.7415 48.7401H22.5029C24.4787 48.7401 25.0767 47.6363 26.6304 43.5339C30.3584 45.0877 30.8781 45.0877 31.342 45.0877C32.0742 45.0877 32.8175 44.7859 33.3317 44.2829L36.0117 41.6616C37.4816 40.2 36.973 38.8307 35.2236 35.1224C39.2226 33.5602 40.4578 32.9622 40.4578 30.9473ZM31.2219 41.8181C30.867 41.7231 29.8665 41.3933 27.1949 40.2643L26.5801 40.0044L24.1265 40.9965L23.875 41.6588C23.5788 42.458 22.7349 44.7076 22.2877 45.5013L18.9455 45.4985C18.49 44.7328 17.6013 42.5307 17.2408 41.6392L16.9837 41.0049L14.5301 40.0156L13.8986 40.3006C11.2521 41.4995 10.2824 41.8376 9.97784 41.9299L7.62484 39.6272C7.86238 38.7553 8.81252 36.5979 9.19816 35.726L9.48041 35.0888L8.4632 32.68L7.79531 32.4396C6.89267 32.1183 4.66264 31.319 3.8634 30.8859V27.6274C4.64308 27.1887 6.82002 26.3448 7.81487 25.9591L8.45482 25.7104L9.47203 23.2987L9.16183 22.6476C8.79575 21.8791 7.77854 19.7245 7.51585 18.8442L9.86326 16.5471C10.2182 16.6421 11.2214 16.9663 13.8986 18.0953L14.5134 18.358L16.9614 17.3659L17.2101 16.7008C17.5063 15.9016 18.3503 13.6548 18.7946 12.8583H22.1368C22.5924 13.6268 23.481 15.8289 23.8415 16.7204L24.0986 17.3547L26.5494 18.3468L27.1838 18.059C29.833 16.8601 30.7999 16.522 31.1045 16.4298L33.4603 18.7325C33.2227 19.6016 32.2698 21.7589 31.887 22.6336L31.6047 23.2736L32.6247 25.688L33.2926 25.9256C34.1924 26.2497 36.4169 27.0462 37.2217 27.4765L37.2189 30.7266C36.4281 31.1793 34.1785 32.0512 33.2675 32.4061L32.6275 32.6548L31.6159 35.0693L31.9233 35.7176C32.2866 36.4833 33.3066 38.6379 33.5721 39.5154L31.2219 41.8181Z" fill="#030104"/>
<path d="M20.544 23.3602C17.266 23.3602 14.6 25.9731 14.6 29.184C14.6 32.3949 17.266 35.0106 20.544 35.0106C23.8219 35.0106 26.4879 32.3949 26.4879 29.184C26.4879 25.9731 23.8219 23.3602 20.544 23.3602ZM20.544 31.7773C19.0489 31.7773 17.8305 30.612 17.8305 29.184C17.8305 27.756 19.0489 26.5934 20.544 26.5934C22.039 26.5934 23.2547 27.756 23.2547 29.184C23.2547 30.612 22.039 31.7773 20.544 31.7773Z" fill="#030104"/>
<path d="M55.4951 37.3049C56.2748 35.5276 56.4788 34.9407 55.8137 34.284L54.5925 33.0963C54.3578 32.8616 54.0168 32.7247 53.6815 32.7247C53.4551 32.7247 53.2232 32.7247 51.5437 33.4736C50.8087 31.6627 50.5349 31.1038 49.6182 31.1038H47.8996C46.9942 31.1038 46.7203 31.6096 46.0105 33.4848C44.3086 32.7777 44.0683 32.7777 43.8559 32.7777C43.5206 32.7777 43.1796 32.9175 42.9449 33.1466L41.7237 34.3399C41.0446 35.0078 41.2794 35.6366 42.0786 37.3384C40.1979 38.0706 39.6837 38.3249 39.6837 39.2471V40.935C39.6837 41.8823 40.251 42.145 42.0954 42.8073C41.3185 44.5818 41.1145 45.1687 41.7768 45.8254L42.9896 47.0103C43.2272 47.245 43.5709 47.3848 43.909 47.3848C44.1326 47.3848 44.3673 47.3848 46.0468 46.6358C46.7818 48.4467 47.0557 49.0056 47.9723 49.0056H49.6937C50.5963 49.0056 50.8702 48.5026 51.5828 46.6246C53.2875 47.3345 53.525 47.3345 53.7374 47.3345C54.0727 47.3345 54.4137 47.1947 54.6484 46.9656L55.8724 45.7639C56.5459 45.096 56.3111 44.4701 55.5119 42.7738C57.3423 42.0584 57.9068 41.7845 57.9068 40.8623V39.1744C57.9068 38.2271 57.3395 37.9672 55.4951 37.3049ZM56.4285 40.7617C56.068 40.9685 55.0368 41.3681 54.6205 41.5274L54.3298 41.642L53.8659 42.7458L54.0085 43.0449C54.1761 43.3942 54.6428 44.3806 54.763 44.7831L53.6871 45.8338C53.5222 45.7891 53.0639 45.641 51.8427 45.124L51.5604 45.0038L50.4398 45.4593L50.3253 45.7611C50.1883 46.1272 49.8027 47.1556 49.5987 47.5189H48.0673C47.8605 47.1668 47.4497 46.1608 47.2876 45.7528L47.1702 45.4621L46.0496 45.0066L45.759 45.138C44.5462 45.6857 44.1018 45.8394 43.9621 45.8841L42.8862 44.8278C42.9952 44.4309 43.4284 43.4445 43.6044 43.0449L43.733 42.7514L43.2691 41.6504L42.9645 41.5386C42.5537 41.3905 41.5309 41.0244 41.1648 40.8288V39.3365C41.5225 39.1381 42.5173 38.7497 42.9701 38.5736L43.2635 38.4618L43.7274 37.3552L43.5876 37.059C43.4172 36.7097 42.9533 35.7232 42.8331 35.3208L43.909 34.27C44.0711 34.3119 44.5294 34.4601 45.7534 34.9798L46.0357 35.1L47.1563 34.6473L47.268 34.3427C47.4078 33.9766 47.7906 32.9482 47.9946 32.5849H49.526C49.7328 32.937 50.1408 33.9459 50.3057 34.3539L50.4231 34.6445L51.5437 35.1L51.8343 34.9687C53.0471 34.4181 53.4915 34.2644 53.6312 34.2225L54.7099 35.2761C54.5981 35.6729 54.1649 36.6594 53.9861 37.0618L53.8575 37.3524L54.3242 38.459L54.6288 38.568C55.0424 38.7161 56.0624 39.0822 56.4285 39.2778V40.7617Z" fill="#030104"/>
<path d="M48.7939 37.3888C47.296 37.3888 46.0748 38.5849 46.0748 40.052C46.0748 41.5219 47.296 42.718 48.7939 42.718C50.2945 42.718 51.5157 41.5219 51.5157 40.052C51.5157 38.5849 50.2945 37.3888 48.7939 37.3888ZM48.7939 41.2397C48.1092 41.2397 47.5531 40.7087 47.5531 40.052C47.5531 39.4009 48.1092 38.8671 48.7939 38.8671C49.4785 38.8671 50.0346 39.3981 50.0346 40.052C50.0374 40.7087 49.4785 41.2397 48.7939 41.2397Z" fill="#030104"/>
</g>
<defs>
<clipPath id="clip0">
<rect width="57.2795" height="57.2795" fill="white" transform="translate(0.627335 0.677002)"/>
</clipPath>
</defs>
</svg>
