<svg width="59" height="59" viewBox="0 0 59 59" fill="none" xmlns="http://www.w3.org/2000/svg">
<g clip-path="url(#clip0)">
<path d="M48.2033 6.71102H46.4695V4.81926C46.4695 2.42377 44.5793 0.476746 42.2533 0.476746C39.9257 0.476746 38.0371 2.42377 38.0371 4.81926V6.70944H33.7104V4.81926C33.7104 2.42377 31.8202 0.476746 29.4942 0.476746C27.1682 0.476746 25.278 2.42377 25.278 4.81926V6.70944H20.9513V4.81926C20.9513 2.42377 19.0611 0.476746 16.7351 0.476746C14.4091 0.476746 12.5189 2.42377 12.5189 4.81926V6.70944H10.305C6.60518 6.70944 3.59384 9.72078 3.59384 13.4206V51.319C3.59384 55.0188 6.60518 58.0301 10.305 58.0301H48.2033C51.9048 58.0301 54.9145 55.0188 54.9145 51.319V13.4206C54.9145 9.72236 51.9032 6.71102 48.2033 6.71102ZM40.4058 4.81926C40.4058 3.73127 41.2348 2.84539 42.2533 2.84539C43.2734 2.84539 44.1009 3.73127 44.1009 4.81926V12.5505C44.1009 13.6385 43.2734 14.5244 42.2533 14.5244C41.2348 14.5244 40.4058 13.6385 40.4058 12.5505V4.81926ZM27.6467 4.81926C27.6467 3.73127 28.4757 2.84539 29.4942 2.84539C30.5127 2.84539 31.3417 3.73127 31.3417 4.81926V12.5505C31.3417 13.6385 30.5127 14.5244 29.4942 14.5244C28.4757 14.5244 27.6467 13.6385 27.6467 12.5505V4.81926ZM14.886 4.81926C14.886 3.73127 15.715 2.84539 16.7335 2.84539C17.752 2.84539 18.5811 3.73127 18.5811 4.81926V12.5505C18.5811 13.6385 17.752 14.5244 16.7335 14.5244C15.715 14.5244 14.886 13.6385 14.886 12.5505V4.81926ZM50.9668 51.3205C50.9668 52.8444 49.7272 54.084 48.2033 54.084H10.305C8.78118 54.084 7.54159 52.8444 7.54159 51.3205V16.5804H50.9668V51.3205Z" fill="black"/>
<path d="M18.3505 23.5726H11.0945V30.0295H18.3505V23.5726Z" fill="black"/>
<path d="M28.0367 23.5726H20.7791V30.0295H28.0367V23.5726Z" fill="black"/>
<path d="M37.7276 23.5726H30.4716V30.0295H37.7276V23.5726Z" fill="black"/>
<path d="M47.4138 23.5726H40.1562V30.0295H47.4138V23.5726Z" fill="black"/>
<path d="M18.3505 32.1913H11.0945V38.6435H18.3505V32.1913Z" fill="black"/>
<path d="M28.0367 32.1913H20.7791V38.6435H28.0367V32.1913Z" fill="black"/>
<path d="M37.7276 32.1913H30.4716V38.6435H37.7276V32.1913Z" fill="black"/>
<path d="M47.4138 32.1913H40.1562V38.6435H47.4138V32.1913Z" fill="black"/>
<path d="M18.3505 40.8069H11.0945V47.2591H18.3505V40.8069Z" fill="black"/>
<path d="M28.0367 40.8069H20.7791V47.2591H28.0367V40.8069Z" fill="black"/>
<path d="M37.7276 40.8069H30.4716V47.2591H37.7276V40.8069Z" fill="black"/>
<path d="M47.4138 40.8069H40.1562V47.2591H47.4138V40.8069Z" fill="black"/>
</g>
<defs>
<clipPath id="clip0">
<rect width="57.5534" height="57.5534" fill="white" transform="translate(0.476715 0.476746)"/>
</clipPath>
</defs>
</svg>
