<svg width="58" height="58" viewBox="0 0 58 58" fill="none" xmlns="http://www.w3.org/2000/svg">
<g clip-path="url(#clip0)">
<path d="M56.7778 11.2092L46.7893 1.22213C46.5835 1.01633 46.3044 0.900635 46.0133 0.900635H13.4136C11.5979 0.900635 10.1207 2.37783 10.1207 4.19353V6.28606C4.72863 8.40119 0.900635 13.6568 0.900635 19.7899C0.900635 20.396 1.39215 20.8875 1.99827 20.8875H15.3994C16.0055 20.8875 16.497 20.396 16.497 19.7899V6.38879C16.497 5.78268 16.0055 5.29116 15.3994 5.29116C14.3415 5.29116 13.3101 5.40608 12.316 5.62232V4.19353C12.316 3.5883 12.8084 3.0959 13.4136 3.0959H44.9157V9.79145C44.9157 11.6072 46.3929 13.0843 48.2086 13.0843H54.9041V53.8065C54.9041 54.4117 54.4117 54.9041 53.8065 54.9041H13.4136C12.8084 54.9041 12.316 54.4117 12.316 53.8065V44.4034C12.316 43.7973 11.8245 43.3058 11.2184 43.3058C10.6123 43.3058 10.1207 43.7973 10.1207 44.4034V53.8065C10.1207 55.6222 11.5979 57.0994 13.4136 57.0994H53.8065C55.6222 57.0994 57.0994 55.6222 57.0994 53.8065V11.9853C57.0994 11.6942 56.9837 11.415 56.7778 11.2092ZM14.3016 7.53505V18.6923H3.14441C3.66919 12.7817 8.3912 8.05983 14.3016 7.53505ZM48.2086 10.8891C47.6033 10.8891 47.1109 10.3967 47.1109 9.79145V4.64795L53.353 10.8891H48.2086Z" fill="black"/>
<path d="M11.9943 39.6394C11.7903 39.4351 11.5071 39.3177 11.2184 39.3177C10.9297 39.3177 10.6465 39.4351 10.4424 39.6394C10.2382 39.8435 10.1208 40.1267 10.1208 40.4154C10.1208 40.7041 10.2381 40.9872 10.4424 41.1913C10.6465 41.3956 10.9297 41.513 11.2184 41.513C11.5071 41.513 11.7903 41.3956 11.9943 41.1913C12.1986 40.9872 12.316 40.7041 12.316 40.4154C12.316 40.1267 12.1986 39.8435 11.9943 39.6394Z" fill="black"/>
<path d="M19.3309 9.22278C18.7247 9.22278 18.2332 9.7143 18.2332 10.3204V22.6238H5.92988C5.32376 22.6238 4.83224 23.1153 4.83224 23.7214C4.83224 31.716 11.3363 38.2201 19.3309 38.2201C27.3255 38.2201 33.8296 31.716 33.8296 23.7214C33.8296 15.7268 27.3255 9.22278 19.3309 9.22278ZM20.4285 11.4667C22.998 11.6948 25.3427 12.7167 27.2158 14.2843L20.4285 21.0715V11.4667ZM19.3309 36.0249C12.9166 36.0249 7.63296 31.0911 7.07613 24.819H19.3309C19.6338 24.819 19.908 24.6963 20.1067 24.4979C20.1068 24.4978 20.1069 24.4978 20.1071 24.4975L28.7684 15.8363C30.5566 17.9731 31.6343 20.7238 31.6343 23.7214C31.6343 30.5055 26.115 36.0249 19.3309 36.0249Z" fill="black"/>
<path d="M48.9849 35.5424C47.1692 35.5424 45.692 37.0196 45.692 38.8353C45.692 39.2904 45.7849 39.7241 45.9525 40.1187L39.6287 46.4425C39.1942 46.2307 38.7064 46.1116 38.1914 46.1116C37.6885 46.1116 37.2119 46.2253 36.7853 46.4276L32.586 42.2283C32.7315 41.8569 32.8123 41.4531 32.8123 41.0305C32.8123 39.2148 31.3351 37.7376 29.5194 37.7376C27.7037 37.7376 26.2265 39.2148 26.2265 41.0305C26.2265 41.5224 26.3357 41.9891 26.53 42.4088L22.5022 46.4365C22.0732 46.2313 21.5931 46.1161 21.0866 46.1161C19.2709 46.1161 17.7937 47.5933 17.7937 49.409C17.7937 51.2247 19.2709 52.7019 21.0866 52.7019C22.9023 52.7019 24.3795 51.2247 24.3795 49.409C24.3795 48.9001 24.2634 48.4178 24.0564 47.9872L28.0616 43.9819C28.5015 44.2001 28.9963 44.3234 29.5196 44.3234C30.1107 44.3234 30.6653 44.1661 31.1453 43.8923L35.2262 47.9732C35.0163 48.4062 34.8985 48.8918 34.8985 49.4045C34.8985 51.2202 36.3757 52.6974 38.1914 52.6974C40.0071 52.6974 41.4843 51.2202 41.4843 49.4045C41.4843 48.9042 41.3716 48.4298 41.1711 48.0048L47.4358 41.7401C47.8978 41.9875 48.4252 42.1282 48.9849 42.1282C50.8006 42.1282 52.2778 40.651 52.2778 38.8353C52.2778 37.0196 50.8006 35.5424 48.9849 35.5424ZM21.0865 50.5068C20.4813 50.5068 19.9889 50.0144 19.9889 49.4091C19.9889 48.8039 20.4813 48.3115 21.0865 48.3115C21.3812 48.3115 21.6485 48.4288 21.8459 48.6185C21.8503 48.6231 21.8541 48.6281 21.8586 48.6326C21.8639 48.6378 21.8696 48.6422 21.8749 48.6473C22.0659 48.8448 22.1842 49.1133 22.1842 49.4091C22.1842 50.0143 21.6918 50.5068 21.0865 50.5068ZM29.5194 42.1281C28.9142 42.1281 28.4218 41.6357 28.4218 41.0305C28.4218 40.4252 28.9142 39.9328 29.5194 39.9328C30.1246 39.9328 30.617 40.4252 30.617 41.0305C30.617 41.6357 30.1246 42.1281 29.5194 42.1281ZM38.1911 50.5022C37.5859 50.5022 37.0935 50.0098 37.0935 49.4045C37.0935 48.7993 37.5859 48.3069 38.1911 48.3069C38.7964 48.3069 39.2888 48.7993 39.2888 49.4045C39.2888 50.0098 38.7964 50.5022 38.1911 50.5022ZM48.9847 39.9328C48.3795 39.9328 47.8871 39.4404 47.8871 38.8352C47.8871 38.23 48.3796 37.7376 48.9847 37.7376C49.5899 37.7376 50.0823 38.23 50.0823 38.8352C50.0823 39.4404 49.5899 39.9328 48.9847 39.9328Z" fill="black"/>
<path d="M43.4986 26.695H37.7054C37.0993 26.695 36.6078 27.1865 36.6078 27.7926C36.6078 28.3988 37.0992 28.8903 37.7054 28.8903H43.4986C44.1047 28.8903 44.5963 28.3988 44.5963 27.7926C44.5963 27.1865 44.1047 26.695 43.4986 26.695Z" fill="black"/>
<path d="M49.2721 27.0166C49.0681 26.8125 48.7849 26.695 48.4962 26.695C48.2075 26.695 47.9243 26.8123 47.7202 27.0166C47.516 27.2208 47.3986 27.504 47.3986 27.7926C47.3986 28.0813 47.5159 28.3645 47.7202 28.5686C47.9243 28.7727 48.2064 28.8903 48.4962 28.8903C48.7849 28.8903 49.0681 28.7728 49.2721 28.5686C49.4763 28.3645 49.5938 28.0813 49.5938 27.7926C49.5938 27.504 49.4764 27.2208 49.2721 27.0166Z" fill="black"/>
<path d="M51.1135 16.1577H37.7055C37.0993 16.1577 36.6078 16.6492 36.6078 17.2553C36.6078 17.8615 37.0992 18.353 37.7055 18.353H51.1135C51.7196 18.353 52.2111 17.8615 52.2111 17.2553C52.2111 16.6492 51.7196 16.1577 51.1135 16.1577Z" fill="black"/>
<path d="M51.1135 21.4263H37.7055C37.0993 21.4263 36.6078 21.9178 36.6078 22.524C36.6078 23.1301 37.0992 23.6216 37.7055 23.6216H51.1135C51.7196 23.6216 52.2111 23.1301 52.2111 22.524C52.2111 21.9178 51.7196 21.4263 51.1135 21.4263Z" fill="black"/>
</g>
<defs>
<clipPath id="clip0">
<rect width="56.1988" height="56.1988" fill="white" transform="translate(0.900635 0.900635)"/>
</clipPath>
</defs>
</svg>
