<svg width="59" height="58" viewBox="0 0 59 58" fill="none" xmlns="http://www.w3.org/2000/svg">
<g clip-path="url(#clip0)">
<path d="M57.9866 43.2952C57.8951 42.9592 57.6738 42.6733 57.3717 42.5003C47.5148 36.8605 35.2613 39.1239 27.9894 47.2842C30.1046 35.679 40.0008 26.7548 52.055 26.1322C51.8867 29.4496 51.0944 32.6491 49.6936 35.661C49.3878 36.3185 49.673 37.0994 50.3305 37.4052C50.988 37.7112 51.7688 37.4259 52.0747 36.7683C53.8267 33.0011 54.715 28.9692 54.715 24.7845C54.715 24.0593 54.1272 23.4715 53.402 23.4715C37.7215 23.4715 24.9623 36.2208 24.9451 51.8975C24.9435 51.9656 24.9473 52.0346 24.9568 52.1038C24.9769 52.2548 25.0227 52.3977 25.0897 52.5279C25.1816 52.7075 25.312 52.8596 25.4675 52.9768C25.5186 53.0153 25.5724 53.0501 25.6287 53.0809C29.3154 55.185 33.3345 56.1842 37.3042 56.1842C45.5106 56.1842 53.4991 51.9103 57.8589 44.2918C58.0323 43.9896 58.0779 43.6312 57.9866 43.2952ZM30.0489 52.2578L38.4127 49.982C39.1123 49.7916 39.5252 49.0701 39.3348 48.3704C39.1443 47.6709 38.4235 47.2575 37.7231 47.4483L29.3593 49.7241C35.4546 42.2523 46.0536 39.8218 54.8687 44.1435C49.4584 52.336 39.0899 55.611 30.0489 52.2578ZM22.3259 39.3384C21.3953 39.4024 20.468 39.4956 19.5478 39.6167C18.9508 36.9623 18.5581 34.02 18.3903 30.9213C21.215 31.1567 24.0855 31.2764 26.9697 31.2764C27.2275 31.2764 27.4848 31.2754 27.7413 31.2734C28.4665 31.2678 29.0497 30.6755 29.0442 29.9505C29.0387 29.2254 28.448 28.636 27.7213 28.6476C27.4715 28.6495 27.2208 28.6505 26.9697 28.6505C24.0536 28.6505 21.1524 28.525 18.3028 28.2789C18.2994 28.007 18.2977 27.7345 18.2977 27.4609C18.2977 24.1053 18.5515 20.9989 18.9902 18.2235C21.1341 18.5025 23.3258 18.6445 25.5421 18.6445C28.2288 18.6445 30.9023 18.4411 33.495 18.0484C33.791 19.8775 34.008 21.8633 34.1248 23.9919C34.1645 24.716 34.7867 25.2718 35.5077 25.2309C36.2318 25.1912 36.7865 24.572 36.7467 23.8479C36.6279 21.6837 36.4006 19.5811 36.0754 17.5894C39.4511 16.8979 42.6412 15.8778 45.4823 14.5623C45.4855 14.5609 45.4887 14.5592 45.4919 14.5578C46.5782 16.1748 47.4712 17.9466 48.1322 19.8454C48.3707 20.5302 49.1189 20.8919 49.8039 20.6539C50.4887 20.4155 50.8506 19.667 50.6122 18.9824C47.0103 8.63337 37.2252 1.68032 26.2613 1.67944C26.2604 1.67944 26.2592 1.67944 26.2582 1.67944C12.0427 1.67944 0.477455 13.245 0.477455 27.4609C0.477455 33.3263 2.39673 38.8527 6.02767 43.443C9.5495 47.8951 14.5048 51.1015 19.9811 52.4717C20.088 52.4986 20.1952 52.5112 20.3007 52.5112C20.8889 52.5112 21.4242 52.1131 21.5734 51.5167C21.7495 50.8133 21.3217 50.1003 20.6184 49.9243C16.7889 48.9662 13.388 47.0898 10.6258 44.5646C12.8232 43.7081 15.1715 43.0427 17.5983 42.5861C17.8931 43.61 18.2199 44.5837 18.5773 45.4988C18.8411 46.1743 19.6023 46.5079 20.2779 46.2441C20.9534 45.9804 21.287 45.219 21.0233 44.5436C20.7315 43.7966 20.4616 43.0068 20.2143 42.1787C20.9741 42.0847 21.7388 42.011 22.5063 41.958C23.2296 41.9081 23.7757 41.2813 23.7258 40.5578C23.6762 39.8345 23.0509 39.288 22.3259 39.3384ZM43.8622 12.4131C41.3746 13.5118 38.5565 14.3848 35.5835 14.9963C35.0554 12.5742 34.373 10.3723 33.5575 8.49493C32.9157 7.01725 32.2446 5.84608 31.5679 4.9219C36.3768 6.05543 40.6818 8.69931 43.8622 12.4131ZM26.2584 4.30538C28.6684 4.30538 31.445 8.41075 33.0013 15.4556C30.5527 15.8247 28.036 16.0184 25.5422 16.0184C23.4879 16.0184 21.4573 15.8902 19.4713 15.6381C20.9827 8.63308 23.7185 4.30538 26.2584 4.30538ZM6.80845 14.9084C9.79254 16.2133 13.0225 17.189 16.4013 17.8156C15.9227 20.8363 15.6717 24.1007 15.6717 27.4609C15.6717 27.6462 15.6725 27.8315 15.6741 28.0159C11.3122 27.5193 7.10066 26.736 3.17094 25.683C3.47234 21.7346 4.76868 18.0586 6.80845 14.9084ZM8.65785 42.5302C5.3531 38.6671 3.33156 33.7264 3.12163 28.3854C7.10606 29.4171 11.3572 30.1827 15.7485 30.666C15.9088 33.9909 16.3182 37.1631 16.9529 40.036C14.0474 40.5943 11.2453 41.4347 8.65785 42.5302ZM16.8785 15.234C13.9017 14.6819 11.0515 13.8437 8.4024 12.7344C11.5759 8.89334 15.962 6.08913 20.969 4.91489C20.0429 6.16805 19.202 7.77017 18.473 9.69367C17.8389 11.367 17.3048 13.2304 16.8785 15.234Z" fill="black"/>
</g>
<defs>
<clipPath id="clip0">
<rect width="57.5551" height="57.5551" fill="white" transform="translate(0.477455 0.154358)"/>
</clipPath>
</defs>
</svg>
