<svg width="59" height="59" viewBox="0 0 59 59" fill="none" xmlns="http://www.w3.org/2000/svg">
<g clip-path="url(#clip0)">
<path d="M56.2997 41.8039C55.5387 41.1251 54.5834 40.8123 53.6103 40.924C51.9762 41.1109 49.8365 41.5522 47.5711 42.0195C44.512 42.6504 41.349 43.3028 38.9272 43.4541C36.8353 43.5845 33.0256 43.0395 31.8969 42.4483C31.1355 42.0495 30.7096 41.5604 30.4711 41.128H35.1661C37.1031 41.128 38.6788 39.5522 38.6788 37.6154V34.857C38.6788 32.9201 37.1031 31.3445 35.1661 31.3445H22.2962C21.7494 31.3277 15.1831 31.204 10.636 35.0828C9.83116 35.7692 9.19107 36.4178 8.68063 37.0072C8.14066 36.3325 7.3109 35.899 6.38137 35.899H2.18597C1.48982 35.899 0.925476 36.4633 0.925476 37.1595V54.9668C0.925476 55.3011 1.05837 55.6218 1.29462 55.8582C1.53111 56.0945 1.85176 56.2273 2.18597 56.2273L6.38125 56.2272C8.00489 56.2272 9.32577 54.9063 9.32577 53.2828V52.314C10.5804 52.3928 13.4237 52.7032 19.441 53.833C26.5471 55.1673 30.9812 55.6195 34.4747 55.6194C36.9784 55.6194 38.9994 55.3872 41.1734 55.081C43.8609 54.7027 47.2411 53.7465 50.2233 52.903C51.6038 52.5124 52.9078 52.1437 54.0616 51.8527C57.171 51.0684 57.6353 49.1078 57.6353 48.0087V44.7976C57.6353 43.6692 57.1359 42.55 56.2997 41.8039ZM6.8049 53.2828C6.8049 53.5163 6.61486 53.7062 6.38137 53.7062L3.44646 53.7063V38.4201H6.38125C6.61474 38.4201 6.80478 38.61 6.80478 38.8435V53.2828H6.8049ZM55.1143 48.0089C55.1143 48.2766 55.1143 48.9872 53.4453 49.4081C52.2565 49.708 50.9356 50.0816 49.5372 50.4772C46.6323 51.2989 43.3398 52.2302 40.822 52.5846C35.862 53.283 31.7265 53.5747 19.9062 51.3554C13.8272 50.214 10.8099 49.869 9.32577 49.7899V40.4309C9.37078 40.3746 9.41244 40.3147 9.44833 40.2492C9.77126 39.6601 10.5675 38.4547 12.272 37.0009C16.1582 33.686 22.1662 33.8626 22.2254 33.8646C22.2417 33.8652 22.2581 33.8656 22.2744 33.8656H35.1662C35.7131 33.8656 36.158 34.3104 36.158 34.8571V37.6155C36.158 38.1623 35.7131 38.6071 35.1662 38.6071H22.2744C21.5782 38.6071 21.0139 39.1715 21.0139 39.8676C21.0139 40.5638 21.5782 41.1281 22.2744 41.1281H27.7938C28.053 42.1617 28.7681 43.6553 30.7271 44.6815C32.5189 45.6202 36.9629 46.1036 39.0843 45.9703C41.6838 45.808 44.9357 45.1373 48.0804 44.4886C50.2888 44.033 52.3748 43.6028 53.8968 43.4287C54.2176 43.3924 54.4678 43.5479 54.6215 43.6852C54.9255 43.9564 55.1145 44.3828 55.1145 44.7978V48.0089H55.1143Z" fill="black"/>
<path d="M55.5659 2.82599H11.293C9.51054 2.82599 8.06036 4.27616 8.06036 6.05862V26.8144C8.06036 28.597 9.51054 30.0473 11.293 30.0473H55.5659C57.3483 30.0473 58.7985 28.597 58.7985 26.8144V6.0585C58.7985 4.27616 57.3483 2.82599 55.5659 2.82599ZM49.3126 27.5262H17.5489C17.2149 23.768 14.293 20.7447 10.5815 20.2534V12.2759C14.1789 11.7995 17.0341 8.94432 17.5104 5.34686H49.3511C49.8274 8.9436 52.6813 11.7983 56.2775 12.2756V20.2536C52.5673 20.746 49.6466 23.769 49.3126 27.5262ZM56.2775 6.0585V9.7233C54.0736 9.29222 52.3335 7.55129 51.9032 5.34686H55.5659C55.9583 5.34698 56.2775 5.66619 56.2775 6.0585ZM11.293 5.34698H14.9582C14.5279 7.55225 12.7866 9.29354 10.5814 9.72391V6.0585C10.5815 5.66619 10.9007 5.34698 11.293 5.34698ZM10.5815 26.8144V22.8055C12.9001 23.2579 14.7053 25.1597 15.0135 27.5262H11.293C10.9007 27.5262 10.5815 27.2069 10.5815 26.8144ZM55.5659 27.5262H51.848C52.156 25.1605 53.96 23.2591 56.2774 22.8059V26.8144C56.2775 27.2069 55.9583 27.5262 55.5659 27.5262Z" fill="black"/>
<path d="M33.4973 7.41888C28.5248 7.41888 24.4795 11.4641 24.4795 16.4365C24.4795 21.409 28.5248 25.4544 33.4973 25.4544C38.4697 25.4544 42.515 21.409 42.515 16.4365C42.515 11.4643 38.4697 7.41888 33.4973 7.41888ZM33.4973 22.9335C29.9149 22.9335 27.0005 20.0191 27.0005 16.4366C27.0005 12.8544 29.9149 9.94001 33.4973 9.94001C37.0796 9.94001 39.994 12.8544 39.994 16.4366C39.994 20.019 37.0796 22.9335 33.4973 22.9335Z" fill="black"/>
<path d="M18.9853 12.5594C16.8472 12.5594 15.108 14.2987 15.108 16.4368C15.108 18.5747 16.8472 20.314 18.9853 20.314C21.1233 20.314 22.8625 18.5747 22.8625 16.4368C22.8625 14.2987 21.1233 12.5594 18.9853 12.5594ZM18.9853 17.7928C18.2375 17.7928 17.629 17.1845 17.629 16.4366C17.629 15.6887 18.2374 15.0803 18.9853 15.0803C19.7332 15.0803 20.3415 15.6887 20.3415 16.4366C20.3415 17.1845 19.7332 17.7928 18.9853 17.7928Z" fill="black"/>
<path d="M48.0092 12.5594C45.8713 12.5594 44.132 14.2987 44.132 16.4368C44.132 18.5747 45.8713 20.314 48.0092 20.314C50.1472 20.314 51.8865 18.5747 51.8865 16.4368C51.8865 14.2987 50.1472 12.5594 48.0092 12.5594ZM48.0092 17.7928C47.2613 17.7928 46.653 17.1845 46.653 16.4366C46.653 15.6887 47.2613 15.0803 48.0092 15.0803C48.757 15.0803 49.3655 15.6887 49.3655 16.4366C49.3655 17.1845 48.7572 17.7928 48.0092 17.7928Z" fill="black"/>
</g>
<defs>
<clipPath id="clip0">
<rect width="57.873" height="57.873" fill="white" transform="translate(0.925476 0.590088)"/>
</clipPath>
</defs>
</svg>
