<svg width="42" height="45" viewBox="0 0 42 45" fill="none" xmlns="http://www.w3.org/2000/svg">
<path d="M23.625 37.9688V43.5938H19.6875V36.4852C20.5406 37.4063 21.7284 37.9688 23.0212 37.9688H23.625Z" fill="#FCD770"/>
<path d="M21 33.75H18.375C18.5391 34.8188 19.0116 35.7609 19.6875 36.4852V43.5938H15.0938V40.7812H15.75C16.1109 40.7812 16.4391 40.6266 16.6753 40.3664C16.9181 40.1133 17.0625 39.7617 17.0625 39.375C17.0625 38.6016 16.4719 37.9688 15.75 37.9688H15.0938V29.5312V21.7969C18.2634 22.5844 20.8491 24.7852 22.3125 27.7031V33.75H21Z" fill="#FCD770"/>
<path d="M9.84375 40.7812V43.5937H5.25V40.1976V40.1906C6.05063 40.5703 6.94313 40.7812 7.875 40.7812H9.84375Z" fill="#FCD770"/>
<path d="M11.1562 37.9688V40.7812H9.84375H7.875C6.94313 40.7812 6.05062 40.5703 5.25 40.1906C2.93344 39.1078 1.3125 36.6328 1.3125 33.75V33.2859C1.3125 27.7945 4.84969 23.0344 9.84375 21.7969V29.5312V37.6523L11.1562 37.9688Z" fill="#FCD770"/>
<path d="M11.1562 40.7812H15.0938V43.5938H9.84375V40.7812H11.1562Z" fill="#E6E9ED"/>
<path d="M15.0938 29.5312V37.9688C15.0938 37.1953 14.5031 36.5625 13.7812 36.5625H13.0134C12.6656 36.5625 12.3309 36.7102 12.0816 36.9773L11.1562 37.9688L9.84375 37.6523V29.5312L12.4688 26.0156L15.0938 29.5312Z" fill="#E6E9ED"/>
<path d="M15.0938 21.7969V29.5312L12.4688 26.0156L15.0938 21.7969Z" fill="#CCD1D9"/>
<path d="M9.84375 21.7969L12.4688 26.0156L9.84375 29.5312V21.7969Z" fill="#CCD1D9"/>
<path d="M38.0625 33.75H40.6875C40.4972 34.9664 39.9131 36.0211 39.0862 36.7734C38.2594 37.5187 37.1962 37.9688 36.0412 37.9688H32.1562C32.1562 37.582 32.0119 37.2305 31.7691 36.9773C31.5328 36.7172 31.2047 36.5625 30.8437 36.5625H28.2187C27.4969 36.5625 26.9062 37.1953 26.9062 37.9688H23.625H23.0213C21.7284 37.9688 20.5406 37.4062 19.6875 36.4852C19.0116 35.7609 18.5391 34.8188 18.375 33.75H21H22.3125H30.1875H36.75H38.0625Z" fill="#AAB2BD"/>
<path d="M36.75 25.3125V33.75H30.1875V25.3125H35.4375H36.75Z" fill="#D3A06C"/>
<path d="M35.4375 14.0625V25.3125H30.1875V22.5H24.9375V14.0625H27.5625H30.1875H32.8125H35.4375Z" fill="#DFB28B"/>
<path d="M24.9375 22.5H30.1875V25.3125V33.75H22.3125V27.7031V22.5H24.9375Z" fill="#E6E9ED"/>
<path d="M31.7691 36.9773C32.0119 37.2305 32.1563 37.582 32.1563 37.9688C32.1563 38.7422 31.8609 39.4453 31.3884 39.9586C30.9094 40.4648 30.2531 40.7812 29.5313 40.7812C28.8094 40.7812 28.1531 40.4648 27.6741 39.9586C27.2016 39.4453 26.9062 38.7422 26.9062 37.9688C26.9062 37.1953 27.4969 36.5625 28.2188 36.5625H30.8438C31.2047 36.5625 31.5328 36.7172 31.7691 36.9773Z" fill="#F0D0B4"/>
<path d="M15.75 37.9688C16.4719 37.9688 17.0625 38.6016 17.0625 39.375C17.0625 39.7617 16.9181 40.1133 16.6753 40.3664C16.4391 40.6266 16.1109 40.7812 15.75 40.7812H15.0938H11.1562V37.9688L12.0816 36.9773C12.3309 36.7102 12.6656 36.5625 13.0134 36.5625H13.7812C14.5031 36.5625 15.0938 37.1953 15.0938 37.9688H15.75Z" fill="#F0D0B4"/>
<path d="M19.11 13.9781C19.4644 14.3578 19.6875 14.8852 19.6875 15.4688C19.6875 16.6359 18.8081 17.5781 17.7187 17.5781H16.9772C17.0362 17.3531 17.0625 17.1211 17.0625 16.875V13.3594H17.7187C18.2634 13.3594 18.7556 13.5984 19.11 13.9781Z" fill="#F0D0B4"/>
<path d="M14.4375 19.6875L15.0938 21.7969L12.4688 26.0156L9.84375 21.7969L10.5 19.6875H14.4375Z" fill="#F0D0B4"/>
<path d="M17.0625 13.3594V16.875C17.0625 17.1211 17.0363 17.3531 16.9772 17.5781C16.6884 18.7945 15.6581 19.6875 14.4375 19.6875H10.5C9.27937 19.6875 8.24906 18.7945 7.96031 17.5781C7.90125 17.3531 7.875 17.1211 7.875 16.875V13.3594V11.25H17.0625V13.3594Z" fill="#F0D0B4"/>
<path d="M7.96031 17.5781H7.21875C6.67406 17.5781 6.18187 17.3391 5.8275 16.9594C5.47313 16.5797 5.25 16.0523 5.25 15.4688C5.25 14.3016 6.12937 13.3594 7.21875 13.3594H7.875V16.875C7.875 17.1211 7.90125 17.3531 7.96031 17.5781Z" fill="#F0D0B4"/>
<path d="M19.6875 11.25V15.4688C19.6875 14.8852 19.4644 14.3578 19.11 13.9781C18.7556 13.5984 18.2634 13.3594 17.7188 13.3594H17.0625V11.25H19.6875Z" fill="#656D78"/>
<path d="M7.21875 13.3594C6.12937 13.3594 5.25 14.3016 5.25 15.4688V11.25H7.875V13.3594H7.21875Z" fill="#656D78"/>
<path d="M19.6612 8.43749H13.7812V1.53984V1.53281C15.1463 1.79999 16.3734 2.48203 17.3513 3.44531C18.6375 4.71093 19.4906 6.46874 19.6612 8.43749Z" fill="#FF826E"/>
<path d="M11.1562 1.53984V8.43749H5.27625C5.57156 4.96406 8.00625 2.15156 11.1562 1.53281V1.53984Z" fill="#FF826E"/>
<path d="M13.7813 1.53984V8.4375H11.1562V1.53984V1.53281C11.5828 1.44844 12.0225 1.40625 12.4688 1.40625C12.915 1.40625 13.3547 1.44844 13.7813 1.53281V1.53984Z" fill="#FC6E51"/>
<path d="M4.59375 8.4375H5.27625H11.1562H13.7812H19.6612H20.3438C20.7047 8.4375 21 8.75391 21 9.14062V10.5469C21 10.9336 20.7047 11.25 20.3438 11.25H19.6875H17.0625H7.875H5.25H4.59375C4.23281 11.25 3.9375 10.9336 3.9375 10.5469V9.14062C3.9375 8.75391 4.23281 8.4375 4.59375 8.4375Z" fill="#FC6E51"/>
<path d="M39.0318 33.0469L41.2965 26.9803L40.0778 26.4579L37.6182 33.0469H37.4062V24.6094H36.0938V13.3594H33.4688V10.5469H32.1562V13.3594H30.8438V9.14062H29.5312V13.3594H28.2188V10.5469H26.9062V13.3594H24.2812V21.7969H21.6562V25.4032C20.1095 23.3684 17.9983 21.8862 15.6023 21.207L15.3044 20.25C16.2612 19.9666 17.0474 19.2417 17.4405 18.2812H17.7188C19.1664 18.2812 20.3438 17.0198 20.3438 15.4688V11.9531C21.0676 11.9531 21.6562 11.3224 21.6562 10.5469V9.14062C21.6562 8.36508 21.0676 7.73438 20.3438 7.73438H20.2296C19.6015 3.68437 16.3688 0.703125 12.4688 0.703125C8.56866 0.703125 5.33597 3.68437 4.70794 7.73438H4.59375C3.86991 7.73438 3.28125 8.36508 3.28125 9.14062V10.5469C3.28125 11.3224 3.86991 11.9531 4.59375 11.9531V15.4688C4.59375 17.0198 5.77106 18.2812 7.21875 18.2812H7.497C7.89075 19.2417 8.67628 19.9673 9.63309 20.25L9.33516 21.207C4.20656 22.6561 0.65625 27.5681 0.65625 33.2873V33.75C0.65625 36.7481 2.26013 39.3476 4.59375 40.6308V44.2969H24.2812V38.6719H26.3163C26.6214 40.2743 27.9464 41.4844 29.5312 41.4844C31.1161 41.4844 32.4411 40.2743 32.7462 38.6719H36.0399C38.6748 38.6719 40.9021 36.6504 41.3352 33.866L41.4625 33.0469H39.0318ZM30.8438 33.0469V26.0156H36.0938V33.0469H30.8438ZM25.5938 14.7656H34.7812V24.6094H30.8438V21.7969H25.5938V14.7656ZM29.5312 23.2031V33.0469H22.9688V23.2031H29.5312ZM21.6562 27.8972V33.0469H21.4443L18.984 26.4572L17.7653 26.9796L20.0307 33.0469H17.6006L17.7279 33.866C17.9018 34.984 18.3684 35.9761 19.0312 36.7664V42.8906H15.75V41.4844C16.8354 41.4844 17.7188 40.538 17.7188 39.375C17.7188 38.212 16.8354 37.2656 15.75 37.2656V22.7299C18.2523 23.5821 20.3687 25.4215 21.6562 27.8972ZM13.9643 20.3906L14.3693 21.6928L12.4688 24.7479L10.5676 21.6928L10.9732 20.3906H13.9643ZM14.4375 27.5266L13.2812 25.9777L14.4375 24.1193V27.5266ZM10.5 27.5266V24.1193L11.6563 25.9777L10.5 27.5266ZM10.5 29.7773L12.4688 27.1406L14.4375 29.7773V35.9831C14.2314 35.9051 14.0116 35.8594 13.7812 35.8594H13.0128C12.4871 35.8594 11.9923 36.0788 11.6202 36.4774L10.9469 37.1988L10.5 37.092V29.7773ZM11.8125 38.2598L12.5482 37.4716C12.6722 37.3387 12.8376 37.2656 13.0128 37.2656H13.7812C14.1428 37.2656 14.4375 37.5813 14.4375 37.9688V38.6719H15.75C16.1116 38.6719 16.4062 38.9876 16.4062 39.375C16.4062 39.7624 16.1116 40.0781 15.75 40.0781H11.8125V38.2598ZM14.4375 41.4844V42.8906H10.5V41.4844H14.4375ZM17.7188 16.875V14.0625C18.4426 14.0625 19.0312 14.6932 19.0312 15.4688C19.0312 16.2443 18.4426 16.875 17.7188 16.875ZM19.0312 13.0472C18.6434 12.8053 18.1991 12.6562 17.7188 12.6562V11.9531H19.0312V13.0472ZM18.8974 7.73438H14.4375V2.43141C16.6917 3.18023 18.4209 5.18344 18.8974 7.73438ZM13.125 2.14453V7.73438H11.8125V2.14453C12.0284 2.12203 12.2469 2.10938 12.4688 2.10938C12.6906 2.10938 12.9091 2.12203 13.125 2.14453ZM10.5 2.43141V7.73438H6.04013C6.51656 5.18344 8.24578 3.18023 10.5 2.43141ZM4.59309 9.14062H4.59375H20.3438V10.5469H4.59375L4.59309 9.14062ZM7.21875 11.9531V12.6562C6.73838 12.6562 6.29409 12.8053 5.90625 13.0472V11.9531H7.21875ZM5.90625 15.4688C5.90625 14.6932 6.49491 14.0625 7.21875 14.0625V16.875C6.49491 16.875 5.90625 16.2443 5.90625 15.4688ZM8.53125 16.875V11.9531H16.4062V16.875C16.4062 18.038 15.5229 18.9844 14.4375 18.9844H10.5C9.41456 18.9844 8.53125 18.038 8.53125 16.875ZM1.96875 33.75V33.2873C1.96875 28.3936 4.89825 24.1692 9.1875 22.7201V36.7805L8.47547 36.611C6.96281 36.2503 5.90625 34.8391 5.90625 33.1784V30.2344H4.59375V33.1784C4.59375 35.5029 6.07294 37.4787 8.19066 37.9828L10.5 38.5327V40.0781H7.875C4.61869 40.0781 1.96875 37.2389 1.96875 33.75ZM5.90625 41.1848C6.53297 41.3754 7.19184 41.4844 7.875 41.4844H9.1875V42.8906H5.90625V41.1848ZM20.3438 42.8906V37.9083C21.1201 38.3864 22.0172 38.6592 22.9688 38.6698V42.8906H20.3438ZM29.5312 40.0781C28.4458 40.0781 27.5625 39.1317 27.5625 37.9688C27.5625 37.5813 27.8572 37.2656 28.2188 37.2656H30.8438C31.2053 37.2656 31.5 37.5813 31.5 37.9688C31.5 39.1317 30.6167 40.0781 29.5312 40.0781ZM36.0393 37.2656H32.6911C32.4194 36.4493 31.6975 35.8594 30.8431 35.8594H28.2181C27.3637 35.8594 26.6418 36.4493 26.3701 37.2656H23.0219C21.2999 37.2656 19.8089 36.123 19.2255 34.4531H39.8344C39.2523 36.123 37.7619 37.2656 36.0393 37.2656Z" fill="black"/>
<path d="M29.5312 16.1719H30.8438V17.5781H29.5312V16.1719Z" fill="black"/>
<path d="M26.9062 16.1719H28.2188V17.5781H26.9062V16.1719Z" fill="black"/>
<path d="M32.1562 16.1719H33.4688V17.5781H32.1562V16.1719Z" fill="black"/>
<path d="M32.1562 18.9844H33.4688V20.3906H32.1562V18.9844Z" fill="black"/>
<path d="M26.9062 18.9844H28.2188V20.3906H26.9062V18.9844Z" fill="black"/>
<path d="M29.5312 18.9844H30.8438V20.3906H29.5312V18.9844Z" fill="black"/>
<path d="M32.1562 21.7969H33.4688V23.2031H32.1562V21.7969Z" fill="black"/>
<path d="M24.2812 24.6094H25.5938V31.6406H24.2812V24.6094Z" fill="black"/>
<path d="M26.9062 24.6094H28.2188V31.6406H26.9062V24.6094Z" fill="black"/>
<path d="M32.1562 27.4219H34.7812V28.8281H32.1562V27.4219Z" fill="black"/>
<path d="M32.1562 30.2344H34.7812V31.6406H32.1562V30.2344Z" fill="black"/>
</svg>
